<?xml version="1.0" standalone="no"?>
<!DOCTYPE svg PUBLIC "-//W3C//DTD SVG 20010904//EN"
 "http://www.w3.org/TR/2001/REC-SVG-20010904/DTD/svg10.dtd">
<svg version="1.0" xmlns="http://www.w3.org/2000/svg"
 width="45.000000pt" height="41.000000pt" viewBox="0 0 45.000000 41.000000"
 preserveAspectRatio="xMidYMid meet">

<g transform="translate(0.000000,41.000000) scale(0.100000,-0.100000)"
fill="#000000" stroke="none">
<path d="M266 340 c18 -35 25 -37 42 -10 17 27 8 40 -28 40 -28 0 -28 0 -14
-30z"/>
<path d="M138 314 c-44 -23 -30 -84 19 -84 11 0 27 -6 37 -13 17 -13 17 -15 2
-46 -29 -55 -12 -56 21 -2 l32 51 -36 27 -36 28 29 6 c24 4 35 -1 60 -28 24
-25 40 -33 65 -33 26 0 30 3 19 10 -8 5 -23 10 -33 10 -11 0 -26 17 -39 45
-21 44 -23 45 -67 45 -26 -1 -58 -8 -73 -16z"/>
<path d="M190 100 c-9 -6 -10 -10 -3 -10 6 0 15 5 18 10 8 12 4 12 -15 0z"/>
</g>
</svg>
